<svg width="40" height="40" viewBox="0 0 40 40" fill="none" xmlns="http://www.w3.org/2000/svg">
<path fill-rule="evenodd" clip-rule="evenodd" d="M19.9998 3.70005C15.5086 3.70005 11.4428 5.51551 8.49393 8.45428C8.22009 8.72718 7.77688 8.72641 7.50398 8.45258C7.23108 8.17874 7.23184 7.73553 7.50568 7.46263C10.7063 4.27303 15.1233 2.30005 19.9998 2.30005C29.7752 2.30005 37.6998 10.2246 37.6998 20C37.6998 29.7755 29.7752 37.7001 19.9998 37.7001C15.1233 37.7001 10.7063 35.7271 7.50568 32.5375C7.23184 32.2646 7.23108 31.8214 7.50398 31.5475C7.77688 31.2737 8.22009 31.2729 8.49393 31.5458C11.4428 34.4846 15.5086 36.3 19.9998 36.3C29.002 36.3 36.2998 29.0023 36.2998 20C36.2998 10.9978 29.002 3.70005 19.9998 3.70005ZM8.9998 14.7C6.0727 14.7 3.6998 17.0729 3.6998 20C3.6998 22.9272 6.0727 25.3 8.9998 25.3C11.9269 25.3 14.2998 22.9272 14.2998 20C14.2998 17.0729 11.9269 14.7 8.9998 14.7ZM15.6637 19.3C15.3137 15.9287 12.4637 13.3 8.9998 13.3C5.2995 13.3 2.2998 16.2997 2.2998 20C2.2998 23.7004 5.2995 26.7 8.9998 26.7C12.4637 26.7 15.3137 24.0714 15.6637 20.7001H19.2998V25C19.2998 25.3867 19.6132 25.7001 19.9998 25.7001C20.3864 25.7001 20.6998 25.3867 20.6998 25V20.7001H24.2998V26C24.2998 26.3867 24.6132 26.7001 24.9998 26.7001C25.3864 26.7001 25.6998 26.3867 25.6998 26V20C25.6998 19.6135 25.3864 19.3 24.9998 19.3H19.9998H15.6637Z" fill="#82858B"/>
</svg>
