<svg width="32" height="32" fill="none" xmlns="http://www.w3.org/2000/svg"><path d="M0 6.4c0-2.24 0-3.36.436-4.216A4 4 0 012.184.436C3.04 0 4.16 0 6.4 0h19.2c2.24 0 3.36 0 4.216.436a4 4 0 011.748 1.748C32 3.04 32 4.16 32 6.4v19.2c0 2.24 0 3.36-.436 4.216a4 4 0 01-1.748 1.748C28.96 32 27.84 32 25.6 32H6.4c-2.24 0-3.36 0-4.216-.436a4 4 0 01-1.748-1.748C0 28.96 0 27.84 0 25.6V6.4z" fill="#353B4B"/><path d="M6.547 18.81c-1.44 0-2.234.817-2.234 2.386 0 1.57.751 2.429 2.234 2.429 1.46 0 2.234-.86 2.234-2.429s-.816-2.386-2.234-2.386zm.043-8.576c-1.461 0-2.277.817-2.277 2.386 0 1.59.773 2.429 2.277 2.429 1.46 0 2.234-.839 2.234-2.43 0-1.568-.816-2.385-2.234-2.385zM18.337 19.863c-.946 0-1.654 0-2.514-.064-.021-1.032-.021-2.322-.021-4.213 0-1.526 0-3.095.043-4.514a47.09 47.09 0 012.556-.064c2.771 0 3.931.602 3.931 4.277 0 3.848-1.181 4.578-3.995 4.578zM11.57 7.375c.064 2.042.064 4.664.064 8.082 0 3.418 0 5.804-.064 8.039h6.724c5.993 0 8.206-2.407 8.206-8.297 0-5.89-2.427-7.824-8.12-7.824h-6.81z" fill="#FDFDFD"/></svg>